<svg width="127" height="52" viewBox="0 0 127 52" fill="none" xmlns="http://www.w3.org/2000/svg">
<g filter="url(#filter0_d_2_220)">
<rect x="4" y="2" width="119" height="44" rx="22" fill="white"/>
<path d="M33.5271 18.8535C32.3183 15.5832 29.3483 13.1479 25.8636 13.0071C21.0006 12.8113 17 16.6953 17 21.5132C17 23.7495 17.9042 25.7184 19.1901 27.2903L25.4654 35L31.8068 27.2903C33.702 24.9264 34.7965 22.292 33.5271 18.8535Z" fill="#374553"/>
<path fill-rule="evenodd" clip-rule="evenodd" d="M28.2978 25.5556L25.4027 24.0332L22.5076 25.5556L23.0597 22.3315L20.7179 20.0491L23.9551 19.5783L25.4027 16.6458L26.8514 19.5783L30.0864 20.0491L27.7445 22.3315L28.2978 25.5556Z" fill="white"/>
<path d="M52.668 29.022V27.874H45.262V27.048H52.192V24.052H43.834V25.186H50.764V26.026H43.834V29.022H52.668ZM53.074 20.258C51.38 20.174 49.434 19.516 48.93 18.214H52.542V17.094H43.568V18.214H47.208C46.76 19.516 44.982 20.174 43.064 20.286L43.68 21.392C45.668 21.168 47.404 20.356 48.062 19.152C48.776 20.328 50.498 21.168 52.43 21.392L53.074 20.258ZM53.69 23.212V22.05H42.42V23.212H53.69ZM64.8093 29.106V16.632H63.3813V20.048H60.9033V21.224H63.3813V23.324H60.7073V24.486H63.3813V29.106H64.8093ZM60.8193 17.948H55.0793V19.124H59.2793C59.0413 21.742 57.2213 24.402 54.3793 25.718L55.2753 26.81C58.8593 24.85 60.7353 21.812 60.8193 17.948ZM68.2986 24.43V25.578H71.6586C71.3786 27.034 69.6006 28 67.6546 28.126L68.3126 29.19C70.1186 28.994 71.9386 27.874 72.4146 26.768C72.8486 27.874 74.8926 29.092 76.5026 29.218L77.1606 28.126C75.3966 27.93 73.3526 27.02 73.1986 25.578H76.5446V24.43H68.2986ZM66.9266 19.936H69.4046C69.1666 21.406 67.9486 22.414 66.3946 22.932L67.2066 24.038C68.4946 23.618 69.7686 22.498 70.2026 21.378C70.7486 22.456 72.0366 23.366 73.0306 23.688L73.7726 22.568C72.4846 22.218 71.2526 21.364 70.9726 19.936H73.4646V18.774H66.9266V19.936ZM78.1686 20.804V19.6H76.3346V16.632H74.8926V23.828H76.3346V20.804H78.1686ZM68.4246 17.99H71.9666V16.828H68.4246V17.99ZM90.0298 24.01V22.848H78.7598V24.01H90.0298ZM88.6438 21.322V20.174H81.7278V17.038H80.2858V21.322H88.6438ZM88.7278 28.77V27.622H81.6578V25.102H80.2158V28.77H88.7278ZM105.345 21.014C103.553 20.916 101.257 19.908 100.977 18.382H104.785V17.22H95.6009V18.382H99.4369C99.1989 19.908 97.1549 20.902 95.0689 21.042L95.6849 22.162C97.7429 21.924 99.6189 20.944 100.193 19.726C100.865 20.902 102.839 21.91 104.715 22.162L105.345 21.014ZM105.821 24.43V23.268H100.879V21.476H99.4509V23.268H94.5509V24.43H105.821ZM104.547 28.756V27.608H97.4349V25.172H95.9929V28.756H104.547Z" fill="#646F7C"/>
</g>
<defs>
<filter id="filter0_d_2_220" x="0" y="0" width="127" height="52" filterUnits="userSpaceOnUse" color-interpolation-filters="sRGB">
<feFlood flood-opacity="0" result="BackgroundImageFix"/>
<feColorMatrix in="SourceAlpha" type="matrix" values="0 0 0 0 0 0 0 0 0 0 0 0 0 0 0 0 0 0 127 0" result="hardAlpha"/>
<feOffset dy="2"/>
<feGaussianBlur stdDeviation="2"/>
<feColorMatrix type="matrix" values="0 0 0 0 0.156863 0 0 0 0 0.196078 0 0 0 0 0.235294 0 0 0 0.25 0"/>
<feBlend mode="normal" in2="BackgroundImageFix" result="effect1_dropShadow_2_220"/>
<feBlend mode="normal" in="SourceGraphic" in2="effect1_dropShadow_2_220" result="shape"/>
</filter>
</defs>
</svg>
