<svg width="52" height="52" viewBox="0 0 52 52" fill="none" xmlns="http://www.w3.org/2000/svg">
<g filter="url(#filter0_d_2_213)">
<rect x="4" y="2" width="44" height="44" rx="22" fill="white"/>
<path fill-rule="evenodd" clip-rule="evenodd" d="M19.8001 23.8996C19.8001 27.2636 22.5361 29.9996 25.9001 29.9996C29.2631 29.9996 32.0001 27.2636 32.0001 23.8996C32.0001 20.5366 29.2631 17.7996 25.9001 17.7996C22.5361 17.7996 19.8001 20.5366 19.8001 23.8996ZM33.3651 23.1996H35.8001V24.6006H33.3651C33.0321 28.1776 30.1771 31.0316 26.6001 31.3646V33.7996H25.2001V31.3646C21.6221 31.0316 18.7681 28.1776 18.4351 24.6006H16.0001V23.1996H18.4351C18.7681 19.6226 21.6221 16.7686 25.2001 16.4356V13.9996H26.6001V16.4356C30.1771 16.7686 33.0311 19.6226 33.3651 23.1996ZM25.9001 26.9C27.5571 26.9 28.9001 25.557 28.9001 23.9C28.9001 22.243 27.5571 20.9 25.9001 20.9C24.2431 20.9 22.9001 22.243 22.9001 23.9C22.9001 25.557 24.2431 26.9 25.9001 26.9Z" fill="#374553"/>
</g>
<defs>
<filter id="filter0_d_2_213" x="0" y="0" width="52" height="52" filterUnits="userSpaceOnUse" color-interpolation-filters="sRGB">
<feFlood flood-opacity="0" result="BackgroundImageFix"/>
<feColorMatrix in="SourceAlpha" type="matrix" values="0 0 0 0 0 0 0 0 0 0 0 0 0 0 0 0 0 0 127 0" result="hardAlpha"/>
<feOffset dy="2"/>
<feGaussianBlur stdDeviation="2"/>
<feColorMatrix type="matrix" values="0 0 0 0 0.156863 0 0 0 0 0.196078 0 0 0 0 0.235294 0 0 0 0.25 0"/>
<feBlend mode="normal" in2="BackgroundImageFix" result="effect1_dropShadow_2_213"/>
<feBlend mode="normal" in="SourceGraphic" in2="effect1_dropShadow_2_213" result="shape"/>
</filter>
</defs>
</svg>
